<?xml version="1.0" encoding="iso-8859-1"?>
<!-- Generator: Adobe Illustrator 18.0.0, SVG Export Plug-In . SVG Version: 6.00 Build 0)  -->
<!DOCTYPE svg PUBLIC "-//W3C//DTD SVG 1.1//EN" "http://www.w3.org/Graphics/SVG/1.1/DTD/svg11.dtd">
<svg version="1.1" id="Capa_1" xmlns="http://www.w3.org/2000/svg" xmlns:xlink="http://www.w3.org/1999/xlink" x="0px" y="0px"
	 viewBox="0 0 58.415 58.415" style="enable-background:new 0 0 58.415 58.415;" xml:space="preserve">
<g>
	<path d="M45.415,31.707c-7.168,0-13,5.832-13,13s5.832,13,13,13s13-5.832,13-13S52.583,31.707,45.415,31.707z M45.415,55.707
		c-6.065,0-11-4.935-11-11s4.935-11,11-11s11,4.935,11,11S51.48,55.707,45.415,55.707z"/>
	<path d="M51.415,43.707h-5v-5c0-0.553-0.448-1-1-1s-1,0.447-1,1v5h-5c-0.552,0-1,0.447-1,1s0.448,1,1,1h5v5c0,0.553,0.448,1,1,1
		s1-0.447,1-1v-5h5c0.552,0,1-0.447,1-1S51.967,43.707,51.415,43.707z"/>
	<polygon points="0,31.92 25.147,57.121 31.289,50.996 6.115,25.822 	"/>
	<path d="M29.415,44.707c0-8.822,7.178-16,16-16c2.402,0,4.673,0.547,6.719,1.499l4.281-4.27V11.796L45.3,0.707H31.295L7.531,24.409
		l21.973,21.973C29.446,45.832,29.415,45.273,29.415,44.707z M42.43,9.707c2.17,0,3.935,1.766,3.935,3.936s-1.765,3.935-3.935,3.935
		s-3.935-1.765-3.935-3.935S40.26,9.707,42.43,9.707z"/>
</g>
<g>
</g>
<g>
</g>
<g>
</g>
<g>
</g>
<g>
</g>
<g>
</g>
<g>
</g>
<g>
</g>
<g>
</g>
<g>
</g>
<g>
</g>
<g>
</g>
<g>
</g>
<g>
</g>
<g>
</g>
</svg>
