<?xml version="1.0" encoding="iso-8859-1"?>
<!-- Generator: Adobe Illustrator 19.0.0, SVG Export Plug-In . SVG Version: 6.00 Build 0)  -->
<svg version="1.1" id="Capa_1" xmlns="http://www.w3.org/2000/svg" xmlns:xlink="http://www.w3.org/1999/xlink" x="0px" y="0px"
	 viewBox="0 0 480 480" style="enable-background:new 0 0 480 480;" xml:space="preserve">
<ellipse transform="matrix(-0.8914 -0.4532 0.4532 -0.8914 645.7009 480.7927)" style="fill:#DD95C1;" cx="380.447" cy="163.044" rx="88" ry="104.001"/>
<path style="fill:#D5557E;" d="M346.473,248.12c-43.32-22.024-57.344-81.384-31.312-132.584
	c8.826-17.567,21.923-32.636,38.088-43.824c-22.208,11.159-40.192,29.228-51.248,51.488c-26.024,51.2-12,110.56,31.32,132.584
	c28.594,13.354,62.215,9.892,87.488-9.008C397.645,258.982,370.064,259.481,346.473,248.12L346.473,248.12z"/>
<ellipse transform="matrix(-0.4532 -0.8914 0.8914 -0.4532 1.9753 327.3603)" style="fill:#2BB3CE;" cx="101.395" cy="163.074" rx="104.001" ry="88"/>
<g>
	<path style="fill:#FFFFFF;" d="M41.385,173.472c-3.659-0.001-6.852-2.485-7.752-6.032c-8.8-34.6,8.44-68.92,38.4-76.512
		c4.286-1.085,8.639,1.51,9.724,5.796s-1.51,8.639-5.796,9.724c-21.376,5.408-33.4,31.016-26.8,57.056
		c1.087,4.283-1.504,8.635-5.786,9.722c-0.643,0.163-1.303,0.246-1.966,0.246H41.385z"/>
	<path style="fill:#FFFFFF;" d="M440.457,173.472c-4.418-0.001-7.999-3.584-7.998-8.002c0-0.663,0.083-1.323,0.246-1.966
		c6.6-26.04-5.424-51.648-26.8-57.056c-4.286-1.085-6.881-5.438-5.796-9.724s5.438-6.881,9.724-5.796
		c29.936,7.592,47.152,41.912,38.4,76.512C447.331,170.996,444.126,173.482,440.457,173.472z"/>
</g>
<ellipse style="fill:#C9DA53;" cx="240.921" cy="112" rx="88" ry="104"/>
<path style="fill:#FFFFFF;" d="M296.921,110.544c-4.418,0-8-3.582-8-8c0-26.864-17.944-48.72-40-48.72c-4.418,0-8-3.582-8-8
	s3.582-8,8-8c30.88,0,56,29.032,56,64.72C304.921,106.962,301.34,110.544,296.921,110.544z"/>
<path d="M248.921,53.824c22.048,0,40,21.856,40,48.72c0,4.418,3.582,8,8,8s8-3.582,8-8c0-35.688-25.12-64.72-56-64.72
	c-4.418,0-8,3.582-8,8S244.503,53.824,248.921,53.824z"/>
<path d="M75.961,106.448c4.286-1.087,6.879-5.442,5.792-9.728c-1.087-4.286-5.442-6.879-9.728-5.792
	c-29.928,7.592-47.144,41.912-38.4,76.512c1.185,4.256,5.596,6.746,9.852,5.562c4.119-1.147,6.609-5.33,5.652-9.498
	C42.561,137.464,54.577,111.856,75.961,106.448z"/>
<path d="M438.521,173.224c4.281,1.086,8.632-1.503,9.72-5.784c8.8-34.6-8.44-68.92-38.4-76.512c-4.286-1.085-8.639,1.51-9.724,5.796
	s1.51,8.639,5.796,9.724c21.376,5.408,33.4,31.016,26.792,57.056c-1.082,4.284,1.514,8.633,5.798,9.715
	C438.509,173.221,438.515,173.222,438.521,173.224z"/>
<path d="M103.321,71.664c4.291,1.055,8.624-1.569,9.678-5.859c1.055-4.291-1.569-8.624-5.859-9.678
	c-0.205-0.05-0.411-0.092-0.619-0.126c-19.202-4.117-39.233-1.578-56.8,7.2C26.16,75.562,9.354,97.805,3.897,123.848
	c-6.21,28.001-2.316,57.297,10.992,82.704c12.686,25.718,34.058,46.12,60.336,57.6c11.882,5.109,24.667,7.783,37.6,7.864
	c11.1-0.017,22.088-2.222,32.336-6.488c0.182,0.993,0.554,1.941,1.096,2.792l75.664,116.928l-27.304-13.656
	c-16.944-8.485-37.559-1.628-46.044,15.316c-8.485,16.944-1.628,37.559,15.316,46.044c9.67,4.843,21.058,4.843,30.728,0l20-10.016
	c-8.937,14.807-13.672,31.769-13.696,49.064c0,4.418,3.582,8,8,8s8-3.582,8-8c0.012-18.753,6.673-36.895,18.8-51.2l5.2-6.128
	l5.192,6.128c12.134,14.301,18.799,32.445,18.808,51.2c0,4.418,3.582,8,8,8s8-3.582,8-8c-0.025-17.284-4.751-34.236-13.672-49.04
	l20,10.016c16.944,8.466,37.543,1.592,46.008-15.352c8.466-16.944,1.592-37.543-15.352-46.008c-9.65-4.821-21.006-4.821-30.656,0
	l-27.304,13.656l75.656-116.928c0.366-0.657,0.635-1.363,0.8-2.096c9.791,3.824,20.209,5.788,30.72,5.792
	c12.933-0.081,25.718-2.755,37.6-7.864c26.28-11.477,47.652-31.881,60.336-57.6c13.336-25.403,17.255-54.705,11.064-82.72
	c-5.454-26.05-22.268-48.298-45.84-60.656c-16.926-8.471-36.164-11.149-54.76-7.624c-4.35,0.784-7.24,4.946-6.456,9.296
	s4.946,7.24,9.296,6.456c15.161-2.923,30.863-0.763,44.672,6.144c19.344,10.254,33.097,28.611,37.504,50.056
	c5.335,24.317,1.901,49.738-9.696,71.768c-10.966,22.352-29.481,40.107-52.272,50.128c-19.924,9.086-42.867,8.792-62.552-0.8
	c-9.819-4.995-18.278-12.3-24.648-21.288c-2.576-3.59-7.574-4.412-11.164-1.836s-4.412,7.574-1.836,11.164
	c6.501,9.066,14.738,16.75,24.232,22.608c-0.112,0.152-0.272,0.232-0.376,0.384l-73.304,113.256V223.528
	c49.192-4.8,88-52.92,88-111.528c0-61.76-43.048-112-96-112s-96,50.24-96,112c0,58.608,38.8,106.76,88,111.528v149.384
	l-73.264-113.256c-0.317-0.397-0.674-0.762-1.064-1.088c8.997-5.774,16.813-13.208,23.032-21.904
	c2.576-3.59,1.754-8.588-1.836-11.164s-8.588-1.754-11.164,1.836c-6.37,8.988-14.829,16.293-24.648,21.288
	c-19.682,9.597-42.623,9.89-62.544,0.8c-22.79-10.019-41.305-27.771-52.272-50.12c-11.597-22.03-15.031-47.451-9.696-71.768
	c4.401-21.448,18.157-39.806,37.504-50.056C71.306,70.316,87.659,68.265,103.321,71.664L103.321,71.664z M187.425,418.664
	c-9.04,4.525-20.036,0.865-24.561-8.175s-0.865-20.036,8.175-24.561c5.157-2.581,11.229-2.581,16.386,0l32.736,16.368
	L187.425,418.664z M294.457,385.928c9.04-4.525,20.036-0.865,24.561,8.175c4.525,9.04,0.865,20.036-8.175,24.561
	c-5.157,2.581-11.229,2.581-16.386,0l-32.736-16.368L294.457,385.928z M160.921,112c0-52.936,35.912-96,80-96s80,43.064,80,96
	s-35.864,96-80,96S160.921,164.936,160.921,112L160.921,112z"/>
<g>
</g>
<g>
</g>
<g>
</g>
<g>
</g>
<g>
</g>
<g>
</g>
<g>
</g>
<g>
</g>
<g>
</g>
<g>
</g>
<g>
</g>
<g>
</g>
<g>
</g>
<g>
</g>
<g>
</g>
</svg>
