<?xml version="1.0" encoding="iso-8859-1"?>
<!-- Generator: Adobe Illustrator 19.0.0, SVG Export Plug-In . SVG Version: 6.00 Build 0)  -->
<svg version="1.1" id="Capa_1" xmlns="http://www.w3.org/2000/svg" xmlns:xlink="http://www.w3.org/1999/xlink" x="0px" y="0px"
	 viewBox="0 0 512 512" style="enable-background:new 0 0 512 512;" xml:space="preserve">
<path style="fill:#53C76D;" d="M256,249.999v90c24.853,0,45-20.147,45-45L256,249.999z"/>
<path style="fill:#7ADB8F;" d="M271,294.999l-15-45l-45,45c0,24.853,20.147,45,45,45C264.284,339.999,271,319.852,271,294.999z"/>
<path style="fill:#FFEEA4;" d="M281,199.999h-30l20,95h30v-75C301,208.953,292.046,199.999,281,199.999z"/>
<path style="fill:#FFFFFF;" d="M251,199.999h-20c-11.046,0-20,8.954-20,20v75h60v-75C271,208.953,262.046,199.999,251,199.999z"/>
<path style="fill:#BB664A;" d="M290.255,95.834c0.01-0.01-34.255-0.005-34.255-0.005v74.17c24.85,0,45-20.15,45-45
	C301,113.879,296.955,103.684,290.255,95.834z"/>
<path style="fill:#C8815C;" d="M269.89,108.009l-48.145-12.175c-6.7,7.85-10.745,18.045-10.745,29.165c0,24.85,20.15,45,45,45
	c8.28,0,15-20.15,15-45C271,118.989,270.61,113.249,269.89,108.009z"/>
<polygon style="fill:#7ADB8F;" points="256,34.999 226,91.47 286,91.47 "/>
<path style="fill:#651000;" d="M256,79.999l13.89,28.01c7.45-2.23,14.475-6.295,20.365-12.175
	C282.005,86.144,269.72,79.999,256,79.999z"/>
<path style="fill:#871F0C;" d="M256,79.999c-13.72,0-26.005,6.145-34.255,15.835c13.04,13.04,31.645,17.105,48.145,12.175
	C267.66,91.579,262.28,79.999,256,79.999z"/>
<path style="fill:#3C9997;" d="M401,199.999h-30l20,115h30v-95C421,208.953,412.046,199.999,401,199.999z"/>
<path style="fill:#51B5B2;" d="M371,199.999h-20c-11.046,0-20,8.954-20,20l-0.002,64.999L391,314.999v-95
	C391,208.953,382.046,199.999,371,199.999z"/>
<path style="fill:#F63E31;" d="M420.999,284.997c4.01,12.17,7.5,28.59,7.5,48.91c0,0-9.74,5.97-28.5,9.15c0,0-16-28.06-9-58.06
	H420.999z"/>
<g>
	<path style="fill:#FE5D26;" d="M390.999,284.997h-60C331,284.998,331,337.399,331,337.399c8.319,3.251,23.467,7.598,44.999,7.598
		c9.17,0,17.18-0.79,24-1.94C399.929,318.967,395.769,299.467,390.999,284.997z"/>
	<polygon style="fill:#FE5D26;" points="376,34.999 346,91.47 406,91.47 	"/>
</g>
<path style="fill:#FFB2B9;" d="M390.092,109.546L376,169.999c24.853,0,45-20.147,45-45L390.092,109.546z"/>
<path style="fill:#FFD3C7;" d="M391,124.999c0-5.429-0.321-10.634-0.908-15.453L348.997,89C338.07,97.211,331,110.279,331,124.999
	c0,24.853,20.147,45,45,45C384.284,169.999,391,149.852,391,124.999z"/>
<path style="fill:#AD4A38;" d="M376,79.999l14.899,39.832c9.413,3.341,19.543,5.168,30.101,5.168
	C421,100.146,400.853,79.999,376,79.999z"/>
<path style="fill:#BB664A;" d="M376,79.999c-10.132,0-19.481,3.35-27.003,9.002c10.532,14.02,25.066,24.856,41.901,30.831
	C390.044,97.414,383.701,79.999,376,79.999z"/>
<path style="fill:#3C9997;" d="M161,199.999h-30l20,115l30-30v-65C181,208.953,172.046,199.999,161,199.999z"/>
<path style="fill:#51B5B2;" d="M131,199.999h-20c-11.046,0-20,8.954-20,20v95h60v-95C151,208.953,142.046,199.999,131,199.999z"/>
<path style="fill:#F63E31;" d="M181,284.999h-30l-15,30l15,29.264c13.706-1.378,23.769-4.428,30-6.863V284.999z"/>
<g>
	<path style="fill:#FE5D26;" d="M91,284.999c-4.007,12.166-7.499,28.595-7.499,48.908c0,0,18.11,11.092,52.5,11.092
		c5.404,0,10.406-0.274,14.999-0.736v-59.264H91z"/>
	<polygon style="fill:#FE5D26;" points="136,34.999 106,91.47 166,91.47 	"/>
</g>
<path style="fill:#FFB2B9;" d="M150.092,109.546L136,169.999c24.853,0,45-20.147,45-45L150.092,109.546z"/>
<path style="fill:#FFD3C7;" d="M151,124.999c0-5.429-0.321-10.634-0.908-15.453L108.997,89C98.07,97.211,91,110.279,91,124.999
	c0,24.853,20.147,45,45,45C144.284,169.999,151,149.852,151,124.999z"/>
<path style="fill:#AD4A38;" d="M136,79.999l14.899,39.832c9.413,3.341,19.543,5.168,30.101,5.168
	C181,100.146,160.853,79.999,136,79.999z"/>
<path style="fill:#BB664A;" d="M136,79.999c-10.132,0-19.481,3.35-27.003,9.002c10.532,14.02,25.066,24.856,41.901,30.831
	C150.044,97.414,143.701,79.999,136,79.999z"/>
<path d="M256,177.499c28.949,0,52.5-23.551,52.5-52.5c0-12.814-4.621-24.565-12.275-33.689c-0.205-0.269-0.422-0.532-0.668-0.778
	c-1.125-1.281-2.281-2.484-3.492-3.631L262.624,31.48c-1.302-2.45-3.849-3.981-6.624-3.981s-5.322,1.531-6.624,3.981l-29.442,55.421
	c-1.211,1.147-2.367,2.35-3.464,3.606c-0.273,0.271-0.491,0.533-0.695,0.802c-7.654,9.124-12.275,20.875-12.275,33.689
	C203.5,153.948,227.051,177.499,256,177.499z M256,162.499c-20.678,0-37.5-16.822-37.5-37.5c0-6.565,1.701-12.739,4.678-18.112
	c9.49,6.91,20.869,10.648,32.822,10.648s23.332-3.739,32.822-10.648c2.977,5.373,4.678,11.547,4.678,18.112
	C293.5,145.677,276.678,162.499,256,162.499z M232.968,95.438c6.362-4.968,14.354-7.939,23.032-7.939
	c8.678,0,16.671,2.971,23.032,7.939c-6.742,4.611-14.697,7.098-23.032,7.098C247.665,102.536,239.71,100.049,232.968,95.438z
	 M256,50.985l12.197,22.959c-3.917-0.936-7.997-1.446-12.197-1.446s-8.28,0.51-12.197,1.446L256,50.985z"/>
<path d="M376,177.499c28.949,0,52.5-23.551,52.5-52.5c0-14.99-6.325-28.522-16.434-38.098L382.624,31.48
	c-1.302-2.45-3.849-3.981-6.624-3.981s-5.322,1.531-6.624,3.981l-29.442,55.421c-10.109,9.575-16.434,23.107-16.434,38.098
	C323.5,153.948,347.051,177.499,376,177.499z M412.651,117.079c-20.154-2-38.58-11.212-52.297-26.147
	c4.766-2.198,10.063-3.433,15.646-3.433C393.96,87.499,409.005,100.193,412.651,117.079z M376,50.985l12.197,22.959
	c-3.917-0.936-7.997-1.446-12.197-1.446s-8.28,0.51-12.197,1.446L376,50.985z M348.199,99.86
	c16.692,18.803,39.576,30.244,64.607,32.299c-3.352,17.264-18.577,30.34-36.806,30.34c-20.678,0-37.5-16.822-37.5-37.5
	C338.5,115.336,342.175,106.516,348.199,99.86z"/>
<path d="M512,136.499c0-4.142-3.358-7.5-7.5-7.5s-7.5,3.358-7.5,7.5c0,39.76-30.695,72.464-69.63,75.713
	c-3.367-11.382-13.911-19.713-26.37-19.713h-50c-12.563,0-23.178,8.472-26.452,20h-17.096c-3.274-11.528-13.889-20-26.452-20h-50
	c-12.563,0-23.178,8.472-26.452,20h-17.096c-3.274-11.528-13.889-20-26.452-20h-50c-12.459,0-23.003,8.331-26.37,19.713
	C45.695,208.963,15,176.259,15,136.499c0-4.142-3.358-7.5-7.5-7.5s-7.5,3.358-7.5,7.5c0,47.652,36.818,86.862,83.5,90.689v56.624
	c-4.977,15.544-7.499,32.39-7.499,50.095c0,2.61,1.357,5.033,3.583,6.396c0.459,0.281,6.895,4.139,18.916,7.441v113.849
	l-24.872,8.291c-3.93,1.31-6.053,5.557-4.744,9.487c1.048,3.143,3.974,5.13,7.114,5.13c0.786,0,1.586-0.125,2.373-0.387l30-10
	c3.063-1.021,5.128-3.887,5.128-7.115V350.876c6.586,0.982,14.087,1.622,22.501,1.622c8.401,0,15.903-0.628,22.499-1.607v116.108
	c0,3.228,2.066,6.094,5.128,7.115l30,10c0.77,0.256,1.571,0.385,2.372,0.385s1.602-0.128,2.372-0.385l30-10
	c3.063-1.021,5.128-3.887,5.128-7.115V342.423c6.824,3.251,14.452,5.076,22.5,5.076s15.676-1.825,22.5-5.076v124.576
	c0,3.228,2.066,6.094,5.128,7.115l30,10c0.77,0.256,1.571,0.385,2.372,0.385s1.602-0.128,2.372-0.385l30-10
	c3.063-1.021,5.128-3.887,5.128-7.115V350.891c6.596,0.979,14.097,1.607,22.499,1.607c8.415,0,15.916-0.641,22.501-1.622v116.123
	c0,3.228,2.066,6.094,5.128,7.115l30,10c0.787,0.262,1.586,0.387,2.373,0.387c3.14,0,6.066-1.988,7.114-5.13
	c1.31-3.93-0.814-8.177-4.744-9.487l-24.872-8.291V347.744c12.02-3.302,18.456-7.16,18.916-7.441
	c2.226-1.363,3.583-3.786,3.583-6.396c0-17.703-2.522-34.55-7.499-50.095v-56.624C475.182,223.361,512,184.151,512,136.499z
	 M351,207.499h50c6.893,0,12.5,5.607,12.5,12.5v57.5h-75v-57.5C338.5,213.106,344.107,207.499,351,207.499z M231,207.499h50
	c6.893,0,12.5,5.607,12.5,12.5v67.5h-75v-67.5C218.5,213.106,224.107,207.499,231,207.499z M111,207.499h50
	c6.893,0,12.5,5.607,12.5,12.5v57.5h-75v-57.5C98.5,213.106,104.107,207.499,111,207.499z M91.064,329.295
	c0.352-12.911,2.193-25.246,5.483-36.796H173.5v39.612c-2.573,0.831-5.516,1.651-8.821,2.393c-0.193,0.034-0.383,0.078-0.571,0.127
	c-7.513,1.645-16.871,2.867-28.107,2.867C112.892,337.499,97.617,332.167,91.064,329.295z M196,469.093l-22.5-7.5v-113.84
	c3.982-1.096,7.402-2.262,10.23-3.368c2.876-1.124,4.77-3.897,4.77-6.985V227.499h15v67.5c0,14.269,5.73,27.22,15,36.692v129.902
	L196,469.093z M219.255,302.499h73.491c-3.484,17.096-18.635,30-36.745,30S222.739,319.595,219.255,302.499z M338.5,461.593
	l-22.5,7.5l-22.5-7.5V331.691c9.27-9.472,15-22.423,15-36.692v-67.5h15V337.4c0,3.088,1.894,5.861,4.77,6.985
	c2.828,1.105,6.248,2.272,10.23,3.368V461.593z M375.999,337.499c-11.236,0-20.594-1.223-28.107-2.867
	c-0.188-0.049-0.378-0.092-0.571-0.127c-3.304-0.742-6.248-1.562-8.821-2.393V292.5h76.953c3.289,11.55,5.13,23.885,5.483,36.794
	C414.362,332.175,399.091,337.499,375.999,337.499z"/>
<path d="M136,177.499c28.949,0,52.5-23.551,52.5-52.5c0-14.99-6.325-28.522-16.434-38.098L142.624,31.48
	c-1.302-2.45-3.849-3.981-6.624-3.981s-5.322,1.531-6.624,3.981L99.934,86.901C89.825,96.477,83.5,110.009,83.5,124.999
	C83.5,153.948,107.051,177.499,136,177.499z M172.651,117.079c-20.154-2-38.58-11.212-52.297-26.147
	c4.766-2.198,10.063-3.433,15.646-3.433C153.96,87.499,169.005,100.193,172.651,117.079z M136,50.985l12.197,22.959
	c-3.917-0.936-7.997-1.446-12.197-1.446s-8.28,0.51-12.197,1.446L136,50.985z M108.199,99.86
	c16.692,18.803,39.576,30.244,64.607,32.299c-3.352,17.264-18.577,30.34-36.806,30.34c-20.678,0-37.5-16.822-37.5-37.5
	C98.5,115.336,102.175,106.516,108.199,99.86z"/>
<g>
</g>
<g>
</g>
<g>
</g>
<g>
</g>
<g>
</g>
<g>
</g>
<g>
</g>
<g>
</g>
<g>
</g>
<g>
</g>
<g>
</g>
<g>
</g>
<g>
</g>
<g>
</g>
<g>
</g>
</svg>
