<?xml version="1.0" encoding="iso-8859-1"?>
<!-- Generator: Adobe Illustrator 19.0.0, SVG Export Plug-In . SVG Version: 6.00 Build 0)  -->
<svg version="1.1" id="Capa_1" xmlns="http://www.w3.org/2000/svg" xmlns:xlink="http://www.w3.org/1999/xlink" x="0px" y="0px"
	 viewBox="0 0 512.1 512.1" style="enable-background:new 0 0 512.1 512.1;" xml:space="preserve">
<path style="fill:#388E3C;" d="M202.75,426.7h85.3c5.9,0,10.7,4.8,10.7,10.7v64c0,5.9-4.8,10.7-10.7,10.7h-85.3
	c-5.9,0-10.7-4.8-10.7-10.7v-64C192.05,431.4,196.85,426.7,202.75,426.7z"/>
<circle style="fill:#FFB300;" cx="256.05" cy="341.3" r="32"/>
<path d="M256.05,384c-23.6,0-42.7-19.1-42.7-42.7s19.1-42.7,42.7-42.7c23.6,0,42.7,19.1,42.7,42.7S279.65,384,256.05,384z
	 M256.05,320c-11.8,0-21.3,9.6-21.3,21.3s9.6,21.3,21.3,21.3c11.8,0,21.3-9.6,21.3-21.3S267.85,320,256.05,320z"/>
<path style="fill:#4CAF50;" d="M406.75,433.7c-0.8-2.3-1.3-4.7-1.3-7.1l-10.7-0.4l0,0l10.9-1.9c0.4-3.7-1.2-7.4-4.3-9.7
	c-27.4-20.8-51.5-45.6-71.7-73.4h65.1c5.9,0,10.7-4.8,10.7-10.7c0-3.4-1.6-6.5-4.3-8.5c-33.5-25.6-64-55-90.9-87.5h43.8
	c4.5,0,8.5-2.8,10-7.1c0.7-1.9,1.6-3.7,2.8-5.4c3.5-4.8,2.4-11.4-2.3-14.9c-0.1-0.1-0.2-0.2-0.3-0.2c-44.9-37.7-81.9-83.9-108.8-136
	c-2-5.5-8.2-8.4-13.7-6.3c-2.9,1.1-5.3,3.4-6.3,6.3c-11.4,23.5-25.4,45.7-41.7,66.1c-1.8,2.4-2.5,5.4-2,8.4c0.3,1.3,0.4,2.5,0.4,3.8
	c0,11.8-9.6,21.3-21.3,21.3c-3,0-5.8,1.3-7.9,3.5c-13.4,16.6-30.1,30.1-49.1,39.8c-5.6,1.9-8.5,8-6.6,13.5c1.5,4.4,5.6,7.3,10.2,7.2
	h63.2c-23.5,28.2-49.6,54.1-77.9,77.3c-4.6,3.7-5.3,10.4-1.6,15c0.1,0.1,0.2,0.2,0.3,0.3c1.8,2,3.1,4.4,4.1,6.9
	c1.5,4.2,5.5,7.1,10,7.1h45.7c-24.8,34.6-55.9,64-91.9,86.8c-5.1,3-6.8,9.5-3.8,14.6c1.9,3.3,5.4,5.3,9.2,5.3h322
	c5.9,0,10.7-4.8,10.7-10.7C407.35,436.1,407.15,434.9,406.75,433.7L406.75,433.7z"/>
<circle style="fill:#F44336;" cx="170.75" cy="149.3" r="42.7"/>
<g>
	<circle style="fill:#FFC107;" cx="384.05" cy="234.7" r="42.7"/>
	<circle style="fill:#FFC107;" cx="85.35" cy="341.3" r="42.7"/>
</g>
<circle style="fill:#F44336;" cx="426.75" cy="426.7" r="42.7"/>
<path d="M288.05,512h-85.3c-5.9,0-10.7-4.8-10.7-10.7v-64c0-5.9,4.8-10.7,10.7-10.7s10.7,4.8,10.7,10.7v53.3h64v-53.3
	c0-5.9,4.8-10.7,10.7-10.7c5.9,0,10.7,4.8,10.7,10.7v64C298.75,507.2,293.95,512,288.05,512z"/>
<path d="M245.35,96c-5.9,0-10.7-4.8-10.7-10.7V10.7c0-5.9,4.8-10.7,10.7-10.7s10.7,4.8,10.7,10.7v74.7
	C256.05,91.2,251.25,96,245.35,96z"/>
<path d="M288.05,85.3c-1.7,0-3.3-0.4-4.8-1.1l-85.3-42.7c-5.3-2.6-7.4-9-4.8-14.3c2.6-5.3,9-7.4,14.3-4.8l85.3,42.7
	c5.3,2.6,7.4,9,4.8,14.3C295.85,83,292.15,85.3,288.05,85.3z"/>
<path d="M202.75,85.3c-5.9,0-10.7-4.8-10.7-10.7c0-4,2.3-7.7,5.9-9.5l85.3-42.7c5.3-2.6,11.7-0.5,14.3,4.8s0.5,11.7-4.8,14.3l0,0
	l-85.3,42.7C205.95,85,204.35,85.3,202.75,85.3z"/>
<path d="M256.05,384c-23.6,0-42.7-19.1-42.7-42.7s19.1-42.7,42.7-42.7c23.6,0,42.7,19.1,42.7,42.7S279.65,384,256.05,384z
	 M256.05,320c-11.8,0-21.3,9.6-21.3,21.3s9.6,21.3,21.3,21.3c11.8,0,21.3-9.6,21.3-21.3S267.85,320,256.05,320z"/>
<path d="M396.65,448h-322c-5.9,0-10.7-4.7-10.7-10.6c0-3.8,2-7.3,5.3-9.2c35.9-22.8,67.1-52.2,91.9-86.8h-45.7
	c-4.5,0-8.5-2.8-10-7.1c-0.9-2.5-2.3-4.9-4.1-6.9c-3.9-4.4-3.4-11.2,1-15.1c0.1-0.1,0.2-0.2,0.3-0.3c28.4-23.2,54.5-49.1,77.9-77.3
	h-63.2c-5.9,0-10.7-4.8-10.7-10.6c0-4.6,2.9-8.6,7.2-10.1c19-9.6,35.7-23.2,49.1-39.8c2-2.2,4.8-3.4,7.7-3.5
	c11.8,0,21.3-9.6,21.3-21.3c0-1.3-0.2-2.6-0.4-3.9c-0.5-2.9,0.2-6,2-8.4c16.4-20.4,30.4-42.6,41.7-66.1c1.6-4.2,5.6-7,10-7l0,0
	c4.5,0,8.5,2.8,10,7c26.9,52.1,63.9,98.4,108.8,136c4.9,3.3,6.2,9.9,2.9,14.8c-0.1,0.1-0.1,0.2-0.2,0.3c-1.2,1.6-2.1,3.4-2.8,5.4
	c-1.5,4.3-5.5,7.1-10,7.1h-43.9c26.9,32.5,57.4,61.8,90.9,87.5c4.7,3.5,5.7,10.2,2.1,14.9c-2,2.7-5.2,4.3-8.5,4.3h-65.1
	c20.2,27.8,44.4,52.6,71.7,73.4c3,2.2,4.7,5.9,4.3,9.7l-10.9,1.9l10.7,0.4c0,2.4,0.5,4.8,1.3,7.1c2,5.5-0.9,11.7-6.5,13.6
	C399.15,447.8,397.95,448,396.65,448z M109.05,426.7h272.9c-31.9-25.5-59.4-56.1-81.6-90.5c-3.1-5-1.5-11.6,3.6-14.7
	c1.6-1,3.5-1.5,5.5-1.6h54.9c-31.3-26.8-59.7-56.8-84.7-89.6c-3.5-4.7-2.6-11.4,2.1-14.9c1.8-1.4,4.1-2.1,6.4-2.1h49.4
	c-36-33.7-67-72.4-92.1-114.8c-9.8,16.6-20.5,32.6-32.1,48c0.1,1,0.1,1.9,0.1,2.9c0,21.6-16.2,39.8-37.7,42.4
	c-7,7.6-14.5,14.8-22.3,21.6h49.3c5.9,0,10.7,4.8,10.7,10.7c0,2.3-0.7,4.6-2.1,6.4c-25.1,32.8-53.5,62.8-84.8,89.6h55
	c5.9,0,10.7,4.8,10.7,10.7c0,2-0.5,3.9-1.6,5.5C168.45,370.6,140.95,401.1,109.05,426.7z"/>
<path d="M170.75,192c-23.6,0-42.7-19.1-42.7-42.7s19.1-42.7,42.7-42.7s42.7,19.1,42.7,42.7S194.25,192,170.75,192z M170.75,128
	c-11.8,0-21.3,9.6-21.3,21.3s9.6,21.3,21.3,21.3c11.8,0,21.3-9.6,21.3-21.3S182.45,128,170.75,128z"/>
<path d="M384.05,277.3c-23.6,0-42.7-19.1-42.7-42.7s19.1-42.6,42.7-42.6s42.7,19.1,42.7,42.7S407.65,277.3,384.05,277.3z
	 M384.05,213.3c-11.8,0-21.3,9.6-21.3,21.3s9.5,21.4,21.3,21.4s21.3-9.6,21.3-21.3S395.85,213.3,384.05,213.3z"/>
<path d="M85.35,384c-23.6,0-42.7-19.1-42.7-42.7s19.1-42.7,42.7-42.7s42.7,19.1,42.7,42.7S108.95,384,85.35,384z M85.35,320
	c-11.8,0-21.3,9.6-21.3,21.3s9.6,21.3,21.3,21.3s21.3-9.6,21.3-21.3S97.15,320,85.35,320z"/>
<path d="M426.75,469.3c-23.6,0-42.7-19.1-42.7-42.7s19.1-42.7,42.7-42.7s42.7,19.1,42.7,42.7
	C469.35,450.2,450.25,469.3,426.75,469.3z M426.75,405.3c-11.8,0-21.3,9.6-21.3,21.3c0,11.8,9.6,21.3,21.3,21.3
	c11.8,0,21.3-9.6,21.3-21.3S438.45,405.3,426.75,405.3z"/>
<g>
</g>
<g>
</g>
<g>
</g>
<g>
</g>
<g>
</g>
<g>
</g>
<g>
</g>
<g>
</g>
<g>
</g>
<g>
</g>
<g>
</g>
<g>
</g>
<g>
</g>
<g>
</g>
<g>
</g>
</svg>
