<svg height="384pt" viewBox="0 0 384 384.0005" width="384pt" xmlns="http://www.w3.org/2000/svg"><path d="m368 96v80h-128v-80zm0 0" fill="#4dd0e1"/><path d="m320 16 16 80h-96v-32zm0 0" fill="#ff8a65"/><path d="m328 176v176c0 8.800781-7.199219 16-16 16h-72v-192zm0 0" fill="#4dd0e1"/><path d="m240 176v192h-96v-272h96zm0 0" fill="#ff8a65"/><path d="m240 64v32h-96v-48c0-17.679688 14.320312-32 32-32h32c17.679688 0 32 14.320312 32 32zm0 0" fill="#ff8a65"/><path d="m144 176v192h-72c-8.800781 0-16-7.199219-16-16v-176zm0 0" fill="#4dd0e1"/><path d="m144 96v80h-128v-80zm0 0" fill="#4dd0e1"/><path d="m144 64v32h-96l16-80zm0 0" fill="#ff8a65"/><path d="m368 80h-18.886719l-13.425781-67.136719c-1.015625-5.101562-4.457031-9.390625-9.207031-11.496093-4.753907-2.101563-10.238281-1.765626-14.710938.914062l-57.191406 34.3125c-5.136719-20.96875-24.042969-36.59375-46.578125-36.59375h-32c-22.535156 0-41.441406 15.625-46.574219 36.601562l-57.195312-34.3125c-4.46875-2.679687-9.949219-3.015624-14.710938-.914062-4.757812 2.105469-8.191406 6.394531-9.207031 11.496094l-13.425781 67.128906h-18.886719c-8.832031 0-16 7.167969-16 16v80c0 8.832031 7.167969 16 16 16h24v160c0 17.648438 14.351562 32 32 32h240c17.648438 0 32-14.351562 32-32v-160h24c8.832031 0 16-7.167969 16-16v-80c0-8.832031-7.167969-16-16-16zm-51.511719 0h-60.488281v-6.945312l52.769531-31.652344zm-140.488281-48h32c8.824219 0 16 7.175781 16 16v32h-64v-32c0-8.824219 7.175781-16 16-16zm48 320h-64v-240h64zm-148.769531-310.597656 52.769531 31.652344v6.945312h-60.488281zm-43.230469 70.597656h15.976562.039063.046875 79.9375v48h-96zm40 80h56v160h-56zm240 160h-56v-160h56zm40-192h-96v-48h79.9375.046875.039063 15.976562zm0 0" fill="#012e52"/></svg>