<svg id="Capa_1" enable-background="new 0 0 512 512" height="512" viewBox="0 0 512 512" width="512" xmlns="http://www.w3.org/2000/svg"><g><g><path d="m112.559 208.047-32.933-16.032-32.933 16.032c-23.258 11.975-39.193 36.169-39.193 64.129 0 40.132 33.487 80.264 58.547 120.397 3.149 5.043 8.362 7.566 13.578 7.572 5.216-.006 10.428-2.529 13.578-7.572 25.061-40.133 58.547-80.265 58.547-120.397 0-27.96-15.935-52.154-39.191-64.129z" fill="#b3e59f"/><path d="m111.71 208.047h-64.129v-32.065c0-8.854 7.178-16.032 16.032-16.032h32.065c8.854 0 16.032 7.178 16.032 16.032z" fill="#db4655"/><circle cx="79.625" cy="272.176" fill="#ccf49f" r="32.065"/><path d="m87.641 183.998c-8.854 0-16.032-7.178-16.032-16.032v-8.016l-8.016.002c-8.844.011-16.012 7.182-16.012 16.03v32.065h64.129v-24.048h-24.069z" fill="#bd4150"/><path d="m465.248 208.047-32.933-16.032-32.933 16.032c-23.256 11.976-39.192 36.169-39.192 64.129 0 40.132 33.487 80.264 58.547 120.397 3.149 5.043 8.362 7.566 13.578 7.572 5.216-.006 10.428-2.529 13.578-7.572 25.061-40.133 58.547-80.265 58.547-120.397 0-27.96-15.936-52.154-39.192-64.129z" fill="#d6bdef"/><circle cx="432.315" cy="272.176" fill="#ead1ff" r="32.065"/><path d="m288.913 224.079-32.933-16.032-32.933 16.032c-23.256 11.976-39.192 36.169-39.192 64.129 0 40.132 33.487 80.264 58.548 120.397 3.149 5.043 8.362 7.566 13.578 7.572 5.216-.006 10.428-2.529 13.578-7.572 25.061-40.133 58.547-80.265 58.547-120.397-.001-27.96-15.936-52.153-39.193-64.129z" fill="#ffe07d"/><circle cx="255.98" cy="288.208" fill="#fff0af" r="32.065"/><path d="m288.044 224.079h-64.129v-32.065c0-8.854 7.178-16.032 16.032-16.032h32.065c8.854 0 16.032 7.178 16.032 16.032z" fill="#db4655"/><path d="m263.976 200.031c-8.854 0-16.032-7.178-16.032-16.032v-8.016l-8.016.002c-8.844.011-16.012 7.182-16.012 16.03v32.065h64.129v-24.048h-24.069z" fill="#bd4150"/><path d="m464.399 208.047h-64.129v-32.065c0-8.854 7.178-16.032 16.032-16.032h32.065c8.854 0 16.032 7.178 16.032 16.032z" fill="#db4655"/><path d="m440.331 183.998c-8.854 0-16.032-7.178-16.032-16.032v-8.016l-8.016.002c-8.844.011-16.012 7.182-16.012 16.03v32.065h64.129v-24.048h-24.069z" fill="#bd4150"/></g><g><path d="m471.919 203.117v-27.135c0-12.976-10.557-23.532-23.532-23.532h-8.532v-37.536c15.855 6.137 32.31 12.456 64.645 12.456 4.142 0 7.5-3.358 7.5-7.5s-3.358-7.5-7.5-7.5c-29.664 0-44.119-5.595-59.422-11.519-15.915-6.16-32.372-12.53-64.838-12.53s-48.922 6.37-64.837 12.53c-15.303 5.924-29.758 11.519-59.422 11.519-29.66 0-44.113-5.595-59.414-11.518-15.913-6.16-32.367-12.53-64.829-12.53-32.46 0-48.914 6.37-64.826 12.53-15.302 5.922-29.754 11.517-59.412 11.517-4.142 0-7.5 3.358-7.5 7.5s3.358 7.5 7.5 7.5c32.337 0 48.789-6.322 64.645-12.46v37.541h-8.532c-12.976 0-23.532 10.557-23.532 23.532v27.135c-24.811 14.206-40.081 40.339-40.081 69.059 0 34.335 22.375 67.897 44.013 100.354 5.258 7.887 10.694 16.042 15.673 24.015 4.341 6.952 11.803 11.102 19.959 11.102 8.157 0 15.618-4.15 19.958-11.102 4.979-7.973 10.416-16.128 15.674-24.015 21.638-32.457 44.012-66.018 44.012-100.354 0-28.72-15.27-54.853-40.081-69.059v-27.134c0-12.976-10.557-23.532-23.532-23.532h-8.532v-42.98c11.182-3.54 24.342-6.149 44.592-6.149 29.66 0 44.113 5.595 59.414 11.518 14.64 5.667 29.749 11.508 57.349 12.407v41.236h-8.532c-12.976 0-23.532 10.557-23.532 23.532v27.135c-24.811 14.206-40.081 40.339-40.081 69.059 0 34.335 22.375 67.897 44.013 100.354 5.258 7.887 10.694 16.042 15.673 24.015 4.341 6.952 11.803 11.102 19.959 11.102s15.618-4.15 19.959-11.102c4.979-7.973 10.416-16.128 15.673-24.015 21.638-32.457 44.013-66.019 44.013-100.354 0-5.972-.666-11.926-1.979-17.698-.919-4.039-4.937-6.568-8.977-5.649-4.039.919-6.568 4.938-5.649 8.977 1.065 4.681 1.605 9.516 1.605 14.37 0 29.794-21.094 61.435-41.493 92.034-5.319 7.978-10.819 16.228-15.916 24.39-1.606 2.572-4.243 4.047-7.236 4.047s-5.63-1.475-7.236-4.047c-5.097-8.162-10.597-16.412-15.916-24.39-20.399-30.599-41.493-62.24-41.493-92.034 0-23.701 12.822-45.235 33.575-56.629h62.12c6.43 3.531 12.185 8.078 17.107 13.564 1.481 1.651 3.528 2.491 5.584 2.491 1.784 0 3.574-.633 5.006-1.918 3.083-2.766 3.34-7.508.573-10.591-5.726-6.381-12.36-11.747-19.756-15.985v-27.125c0-12.976-10.557-23.532-23.532-23.532h-8.531v-41.238c27.579-.903 42.682-6.741 57.317-12.405 15.303-5.924 29.758-11.519 59.422-11.519 20.263 0 33.427 2.611 44.615 6.154v42.975h-8.532c-12.976 0-23.532 10.557-23.532 23.532v27.134c-24.811 14.207-40.081 40.339-40.081 69.059 0 34.335 22.375 67.897 44.012 100.354 5.258 7.887 10.695 16.042 15.674 24.015 4.341 6.952 11.802 11.102 19.958 11.102s15.618-4.15 19.959-11.102c4.979-7.973 10.416-16.128 15.673-24.015 21.64-32.457 44.015-66.019 44.015-100.354 0-28.72-15.27-54.853-40.081-69.059zm-327.628 69.059c0 29.793-21.094 61.434-41.493 92.033-5.319 7.979-10.819 16.229-15.916 24.391-1.606 2.572-4.244 4.047-7.236 4.047-2.993 0-5.63-1.475-7.237-4.047-5.097-8.162-10.597-16.412-15.916-24.39-20.399-30.6-41.493-62.241-41.493-92.034 0-23.7 12.821-45.234 33.575-56.629h62.14c20.754 11.394 33.576 32.929 33.576 56.629zm-40.082-96.194v24.564h-49.128v-24.564c0-4.705 3.828-8.532 8.532-8.532h32.064c4.705 0 8.532 3.828 8.532 8.532zm176.355 16.032v24.564h-49.129v-24.564c0-4.705 3.828-8.532 8.532-8.532h32.064c4.706 0 8.533 3.828 8.533 8.532zm127.227-16.032c0-4.705 3.828-8.532 8.532-8.532h32.064c4.705 0 8.532 3.828 8.532 8.532v24.564h-49.129v-24.564zm47.716 188.227c-5.319 7.978-10.819 16.228-15.916 24.39-1.606 2.572-4.244 4.047-7.237 4.047-2.992 0-5.629-1.475-7.236-4.047-5.097-8.162-10.597-16.412-15.916-24.391-20.399-30.599-41.493-62.24-41.493-92.033 0-23.7 12.822-45.235 33.576-56.629h62.14c20.754 11.395 33.575 32.93 33.575 56.63 0 29.793-21.094 61.434-41.493 92.033z"/><path d="m108.813 256.898c-4.012 1.031-6.428 5.12-5.396 9.132.513 1.994.773 4.062.773 6.146 0 13.545-11.02 24.564-24.564 24.564s-24.564-11.02-24.564-24.564 11.02-24.565 24.564-24.565c4.142 0 7.5-3.358 7.5-7.5s-3.358-7.5-7.5-7.5c-21.816 0-39.564 17.749-39.564 39.565s17.749 39.564 39.564 39.564 39.564-17.749 39.564-39.564c0-3.343-.419-6.668-1.246-9.882-1.032-4.012-5.125-6.428-9.131-5.396z"/><path d="m216.416 288.208c0 21.816 17.749 39.564 39.564 39.564s39.564-17.749 39.564-39.564-17.749-39.564-39.564-39.564-39.564 17.748-39.564 39.564zm64.128 0c0 13.545-11.02 24.564-24.564 24.564s-24.564-11.02-24.564-24.564 11.02-24.564 24.564-24.564 24.564 11.019 24.564 24.564z"/><path d="m432.334 232.611c-21.816 0-39.564 17.749-39.564 39.565s17.749 39.564 39.564 39.564c21.816 0 39.565-17.749 39.565-39.564 0-21.816-17.748-39.565-39.565-39.565zm0 64.129c-13.545 0-24.564-11.02-24.564-24.564s11.02-24.565 24.564-24.565 24.565 11.02 24.565 24.565-11.02 24.564-24.565 24.564z"/></g></g></svg>