<?xml version="1.0" encoding="iso-8859-1"?>
<!-- Generator: Adobe Illustrator 19.0.0, SVG Export Plug-In . SVG Version: 6.00 Build 0)  -->
<svg version="1.1" id="Layer_1" xmlns="http://www.w3.org/2000/svg" xmlns:xlink="http://www.w3.org/1999/xlink" x="0px" y="0px"
	 viewBox="0 0 512 512" style="enable-background:new 0 0 512 512;" xml:space="preserve">
<g>
	<g>
		<path d="M360.758,212.73L210.952,362.535c-16.949,16.949-44.529,16.952-61.482,0c-16.949-16.951-16.949-44.532,0-61.482
			l149.807-149.807L205.22,57.19L51.615,210.794c-68.814,68.815-68.814,180.784,0,249.596C86.021,494.796,131.218,512,176.412,512
			c45.196,0,90.392-17.203,124.799-51.61l153.604-153.604L360.758,212.73z M205.22,106.012l45.235,45.236l-41.938,41.938
			l-45.236-45.236L205.22,106.012z M276.801,435.979c-55.356,55.354-145.42,55.354-200.776,0
			c-55.353-55.354-55.353-145.421,0-200.776l62.845-62.844l45.236,45.236l-59.047,59.047c-30.411,30.41-30.411,79.892,0,110.304
			c30.413,30.412,79.895,30.41,110.304,0L294.41,327.9l45.236,45.236L276.801,435.979z M318.819,303.488l41.938-41.938
			l45.236,45.236l-41.938,41.938L318.819,303.488z"/>
	</g>
</g>
<g>
	<g>
		
			<rect x="422.872" y="199.079" transform="matrix(0.7071 -0.7071 0.7071 0.7071 -20.8209 382.4131)" width="56.662" height="34.522"/>
	</g>
</g>
<g>
	<g>
		<rect x="455.344" y="243.28" width="56.651" height="34.522"/>
	</g>
</g>
<g>
	<g>
		<rect x="389.74" y="155.535" width="34.522" height="56.651"/>
	</g>
</g>
<g>
	<g>
		<rect x="267.341" y="43.539" transform="matrix(0.7071 -0.7071 0.7071 0.7071 43.608 226.88)" width="56.662" height="34.522"/>
	</g>
</g>
<g>
	<g>
		<rect x="299.809" y="87.745" width="56.651" height="34.522"/>
	</g>
</g>
<g>
	<g>
		<rect x="234.205" width="34.522" height="56.651"/>
	</g>
</g>
<g>
</g>
<g>
</g>
<g>
</g>
<g>
</g>
<g>
</g>
<g>
</g>
<g>
</g>
<g>
</g>
<g>
</g>
<g>
</g>
<g>
</g>
<g>
</g>
<g>
</g>
<g>
</g>
<g>
</g>
</svg>
