<svg height="504pt" viewBox="0 -48 504.12377 504" width="504pt" xmlns="http://www.w3.org/2000/svg"><path d="m455.21875 88.0625c86 0 52.480469 306.078125-52.96875 311.917969h-26.230469c39.589844-37.597657 69.679688-157.125 69.679688-226.40625 0-44.390625-8.808594-70.3125-27.363281-84.800781l20.808593-.71875h16.074219zm0 0" fill="#e9573f"/><path d="m418.328125 88.78125c18.554687 14.488281 27.363281 40.410156 27.363281 84.800781 0 69.28125-26.320312 184.640625-65.914062 222.246094-8.246094 7.753906-17.046875 12.234375-26.246094 12.234375h-208.640625c-6.722656 0-13.03125-2.320312-19.03125-6.640625-41.769531-30-65.128906-154.640625-65.128906-227.839844 0-36.640625 4.40625-60.640625 15.128906-76 13.917969-19.832031 38.230469-25.511719 77.03125-25.511719h192.640625c32.398438-.007812 56.398438 3.910157 72.796875 16.710938zm0 0" fill="#fc6e51"/><path d="m125.859375 401.421875-20.882813-1.359375c-107.917968 0-142.878906-312-56.085937-312h35.671875l-8.703125 9.511719c-10.722656 15.359375-15.128906 39.359375-15.128906 76 0 73.207031 23.359375 197.847656 65.128906 227.847656zm0 0" fill="#e9573f"/><path d="m329.699219 140.964844c3.46875-2.695313 7.734375-1.589844 9.460937 2.449218l17.707032 41.296876c1.726562 4.039062-.457032 7.351562-4.847657 7.351562h-80c-4.402343 0-5.160156-2.207031-1.691406-4.90625zm0 0" fill="#ffce54"/><path d="m376.007812 282.398438s-27.949218 77.664062-123.949218 77.664062-132.050782-77.664062-132.050782-77.664062 60.050782 13.664062 132.050782 13.664062 123.949218-13.664062 123.949218-13.664062zm0 0" fill="#ffce54"/><path d="m243.890625 222.917969c2.261719-3.777344 5.96875-3.777344 8.230469 0l15.769531 26.28125c2.261719 3.773437.511719 6.855469-3.882813 6.855469h-32c-4.398437 0-6.148437-3.089844-3.878906-6.855469zm0 0" fill="#ffce54"/><path d="m225.699219 187.15625c3.46875 2.699219 2.710937 4.90625-1.691407 4.90625h-80c-4.398437 0-6.574218-3.3125-4.847656-7.351562l17.707032-41.296876c1.726562-4.039062 5.992187-5.144531 9.460937-2.449218zm0 0" fill="#ffce54"/><path d="m301.21875 16.0625-8-16c-72 0-64 64-64 64v7.871094h39.917969v-7.871094h-.085938s-9.121093-44.234375 32.167969-48zm0 0" fill="#a0d468"/><g fill="#e9573f"><path d="m252.058594 320.070312 12-16h-24zm0 0"/><path d="m276.058594 320.070312 12-16h-24zm0 0"/><path d="m300.058594 320.070312 12-16h-24zm0 0"/><path d="m228.058594 320.070312 12-16h-24zm0 0"/><path d="m204.058594 320.070312 12-16h-24zm0 0"/><path d="m240.058594 336.054688-12 16h24zm0 0"/><path d="m216.058594 336.054688-12 16h24zm0 0"/><path d="m264.058594 336.054688-12 16h24zm0 0"/><path d="m288.058594 336.054688-12 16h24zm0 0"/><path d="m312.058594 292.949219c-17.472656 1.808593-37.769532 3.113281-60 3.113281-21.511719 0-41.90625-1.234375-60-2.945312v10.953124h120zm0 0"/><path d="m204.058594 352.835938c13.984375 4.472656 29.925781 7.226562 48 7.226562 18.414062 0 34.3125-2.871094 48-7.496094v-.511718h-96zm0 0"/></g></svg>