<svg viewBox="0 0 480 480" xmlns="http://www.w3.org/2000/svg"><g fill="#d6ebe9"><path d="m305.632812 212.816406 19.222657-57.671875-57.671875 19.222657-27.183594-54.367188-27.183594 54.367188-57.671875-19.222657 19.222657 57.671875-54.367188 27.183594 54.367188 27.183594-19.222657 57.671875 57.671875-19.222657 27.183594 54.367188 27.183594-54.367188 57.671875 19.222657-19.222657-57.671875 54.367188-27.183594zm0 0"/><path d="m160 8c0 4.417969-3.582031 8-8 8s-8-3.582031-8-8 3.582031-8 8-8 8 3.582031 8 8zm0 0"/><path d="m88 32c0 4.417969-3.582031 8-8 8s-8-3.582031-8-8 3.582031-8 8-8 8 3.582031 8 8zm0 0"/><path d="m16 8c0 4.417969-3.582031 8-8 8s-8-3.582031-8-8 3.582031-8 8-8 8 3.582031 8 8zm0 0"/><path d="m480 160c0 4.417969-3.582031 8-8 8s-8-3.582031-8-8 3.582031-8 8-8 8 3.582031 8 8zm0 0"/><path d="m424 8c0 4.417969-3.582031 8-8 8s-8-3.582031-8-8 3.582031-8 8-8 8 3.582031 8 8zm0 0"/><path d="m480 344c0 4.417969-3.582031 8-8 8s-8-3.582031-8-8 3.582031-8 8-8 8 3.582031 8 8zm0 0"/><path d="m73.65625 321.65625c0 4.417969-3.582031 8-8 8s-8-3.582031-8-8 3.582031-8 8-8 8 3.582031 8 8zm0 0"/><path d="m16 448c0 4.417969-3.582031 8-8 8s-8-3.582031-8-8 3.582031-8 8-8 8 3.582031 8 8zm0 0"/></g><path d="m472 232h-14.710938c-3.078124 0-5.882812-1.761719-7.214843-4.535156-1.332031-2.773438-.957031-6.0625.964843-8.464844l6.207032-7.753906c2.765625-3.449219 2.207031-8.484375-1.246094-11.246094-3.449219-2.757812-8.480469-2.199219-11.238281 1.246094l-22.203125 27.753906c-1.515625 1.894531-3.8125 3-6.238282 3h-9.695312c-3.234375 0-6.152344-1.949219-7.390625-4.9375s-.554687-6.429688 1.734375-8.71875l15.03125-15.03125c3.125-3.125 3.125-8.1875 0-11.3125s-8.1875-3.125-11.3125 0l-40 40h-2.800781l-40.285157-20.136719c-3.558593-1.785156-5.265624-5.914062-4-9.6875l12.230469-36.703125c1.089844-3.273437 4.152344-5.476562 7.601563-5.472656h38.566406c4.417969 0 8-3.582031 8-8s-3.582031-8-8-8h-9.375c-3.234375 0-6.152344-1.949219-7.390625-4.9375s-.554687-6.429688 1.734375-8.71875l8-8c1.5-1.5 3.535156-2.34375 5.65625-2.34375h41.375c4.417969 0 8-3.582031 8-8s-3.582031-8-8-8h-9.375c-3.234375 0-6.152344-1.949219-7.390625-4.9375s-.554687-6.429688 1.734375-8.71875l8.734375-8.742188c3.125-3.125 3.125-8.191406 0-11.3125-3.125-3.125-8.1875-3.125-11.3125 0l-8.734375 8.734376c-2.289062 2.285156-5.726562 2.972656-8.714844 1.734374-2.988281-1.234374-4.9375-4.148437-4.941406-7.382812v-9.375c0-4.417969-3.582031-8-8-8s-8 3.582031-8 8v41.375c0 2.121094-.84375 4.15625-2.34375 5.65625l-8 8c-2.289062 2.289062-5.730469 2.972656-8.71875 1.734375s-4.9375-4.15625-4.9375-7.390625v-9.375c0-4.417969-3.582031-8-8-8s-8 3.582031-8 8v38.566406c-.003906 3.445313-2.207031 6.496094-5.472656 7.585938l-36.710938 12.246094c-3.773437 1.257812-7.894531-.445313-9.679687-4l-20.136719-40.285157v-2.800781l40-40c3.125-3.125 3.125-8.1875 0-11.3125s-8.1875-3.125-11.3125 0l-15.03125 15.03125c-2.289062 2.289062-5.730469 2.972656-8.71875 1.734375s-4.9375-4.15625-4.9375-7.390625v-9.6875c0-2.425781 1.105469-4.722656 3-6.238281l27.753906-22.203125c3.449219-2.757813 4.007813-7.796875 1.246094-11.246094-2.761719-3.453125-7.796875-4.011719-11.246094-1.246094l-7.753906 6.207032c-2.402344 1.921874-5.691406 2.296874-8.464844.964843-2.773437-1.332031-4.535156-4.136719-4.535156-7.214843v-14.710938c0-4.417969-3.582031-8-8-8s-8 3.582031-8 8v14.710938c0 3.078124-1.761719 5.882812-4.535156 7.214843-2.773438 1.332031-6.0625.957031-8.464844-.964843l-7.753906-6.207032c-3.449219-2.765625-8.484375-2.207031-11.246094 1.246094-2.761719 3.449219-2.203125 8.488281 1.246094 11.246094l27.753906 22.203125c1.894531 1.515625 3 3.8125 3 6.238281v9.6875c0 3.234375-1.949219 6.152344-4.9375 7.390625s-6.429688.554687-8.71875-1.734375l-15.03125-15.03125c-3.125-3.125-8.1875-3.125-11.3125 0s-3.125 8.1875 0 11.3125l40 40v2.800781l-20.136719 40.285157c-1.785156 3.554687-5.90625 5.257812-9.679687 4l-36.710938-12.238282c-3.269531-1.089844-5.472656-4.148437-5.472656-7.59375v-38.566406c0-4.417969-3.582031-8-8-8s-8 3.582031-8 8v9.375c0 3.234375-1.949219 6.152344-4.9375 7.390625s-6.429688.554687-8.71875-1.734375l-8-8c-1.5-1.5-2.34375-3.535156-2.34375-5.65625v-41.375c0-4.417969-3.582031-8-8-8s-8 3.582031-8 8v9.375c0 3.234375-1.949219 6.152344-4.9375 7.390625s-6.429688.554687-8.71875-1.734375l-8.742188-8.734375c-3.125-3.125-8.191406-3.125-11.3125 0-3.125 3.125-3.125 8.1875 0 11.3125l8.734376 8.734375c2.285156 2.289062 2.972656 5.726562 1.734374 8.714844-1.234374 2.988281-4.148437 4.9375-7.382812 4.941406h-9.375c-4.417969 0-8 3.582031-8 8s3.582031 8 8 8h41.375c2.121094 0 4.15625.84375 5.65625 2.34375l8 8c2.289062 2.289062 2.972656 5.730469 1.734375 8.71875s-4.15625 4.9375-7.390625 4.9375h-9.375c-4.417969 0-8 3.582031-8 8s3.582031 8 8 8h38.566406c3.445313 0 6.503906 2.203125 7.59375 5.472656l12.238282 36.703125c1.265624 3.773438-.441407 7.902344-4 9.6875l-40.285157 20.136719h-2.800781l-40-40c-3.125-3.125-8.1875-3.125-11.3125 0s-3.125 8.1875 0 11.3125l15.03125 15.03125c2.289062 2.289062 2.972656 5.730469 1.734375 8.71875s-4.15625 4.9375-7.390625 4.9375h-9.6875c-2.425781 0-4.722656-1.105469-6.238281-3l-22.203125-27.753906c-2.757813-3.449219-7.796875-4.007813-11.246094-1.246094-3.453125 2.761719-4.011719 7.796875-1.246094 11.246094l6.207032 7.753906c1.921874 2.402344 2.296874 5.691406.964843 8.464844-1.332031 2.773437-4.136719 4.535156-7.214843 4.535156h-14.710938c-4.417969 0-8 3.582031-8 8s3.582031 8 8 8h14.710938c3.078124 0 5.882812 1.761719 7.214843 4.535156 1.332031 2.773438.957031 6.0625-.964843 8.464844l-6.207032 7.753906c-2.765625 3.449219-2.207031 8.484375 1.246094 11.246094 3.441406 2.730469 8.441406 2.171875 11.199219-1.246094l22.199219-27.753906c1.527343-1.90625 3.84375-3.011719 6.289062-3h9.6875c3.234375 0 6.152344 1.949219 7.390625 4.9375s.554687 6.429688-1.734375 8.71875l-15.03125 15.03125c-3.125 3.125-3.125 8.1875 0 11.3125s8.1875 3.125 11.3125 0l40-40h2.800781l40.285157 20.136719c3.558593 1.785156 5.265624 5.914062 4 9.6875l-12.238282 36.703125c-1.089844 3.269531-4.148437 5.472656-7.59375 5.472656h-38.566406c-4.417969 0-8 3.582031-8 8s3.582031 8 8 8h9.375c3.234375 0 6.152344 1.949219 7.390625 4.9375s.554687 6.429688-1.734375 8.71875l-8 8c-1.5 1.5-3.535156 2.34375-5.65625 2.34375h-41.375c-4.417969 0-8 3.582031-8 8s3.582031 8 8 8h9.375c3.234375 0 6.152344 1.949219 7.390625 4.9375s.554687 6.429688-1.734375 8.71875l-8.734375 8.742188c-3.125 3.125-3.125 8.191406 0 11.3125 3.125 3.125 8.1875 3.125 11.3125 0l8.734375-8.734376c2.289062-2.285156 5.726562-2.972656 8.714844-1.734374 2.988281 1.234374 4.9375 4.148437 4.941406 7.382812v9.375c0 4.417969 3.582031 8 8 8s8-3.582031 8-8v-41.375c0-2.121094.84375-4.15625 2.34375-5.65625l8-8c2.289062-2.289062 5.730469-2.972656 8.71875-1.734375s4.9375 4.15625 4.9375 7.390625v9.375c0 4.417969 3.582031 8 8 8s8-3.582031 8-8v-38.566406c.003906-3.445313 2.207031-6.496094 5.472656-7.585938l36.710938-12.238281c3.773437-1.257813 7.894531.445313 9.679687 4l20.136719 40.277344v2.800781l-40 40c-3.125 3.125-3.125 8.1875 0 11.3125s8.1875 3.125 11.3125 0l15.03125-15.03125c2.289062-2.289062 5.730469-2.972656 8.71875-1.734375s4.9375 4.15625 4.9375 7.390625v9.6875c0 2.425781-1.105469 4.722656-3 6.238281l-27.753906 22.203125c-3.449219 2.757813-4.007813 7.796875-1.246094 11.246094 2.761719 3.453125 7.796875 4.011719 11.246094 1.246094l7.753906-6.207032c2.402344-1.921874 5.691406-2.296874 8.464844-.964843 2.773437 1.332031 4.535156 4.136719 4.535156 7.214843v14.710938c0 4.417969 3.582031 8 8 8s8-3.582031 8-8v-14.710938c0-3.078124 1.761719-5.882812 4.535156-7.214843 2.773438-1.332031 6.0625-.957031 8.464844.964843l7.753906 6.207032c3.449219 2.765625 8.484375 2.207031 11.246094-1.246094 2.761719-3.449219 2.203125-8.488281-1.246094-11.246094l-27.753906-22.203125c-1.894531-1.515625-3-3.8125-3-6.238281v-9.6875c0-3.234375 1.949219-6.152344 4.9375-7.390625s6.429688-.554687 8.71875 1.734375l15.03125 15.03125c3.125 3.125 8.1875 3.125 11.3125 0s3.125-8.1875 0-11.3125l-40-40v-2.800781l20.136719-40.285157c1.785156-3.554687 5.90625-5.257812 9.679687-4l36.710938 12.238282c3.265625 1.085937 5.46875 4.140625 5.472656 7.585937v38.574219c0 4.417969 3.582031 8 8 8s8-3.582031 8-8v-9.375c0-3.234375 1.949219-6.152344 4.9375-7.390625s6.429688-.554687 8.71875 1.734375l8 8c1.5 1.5 2.34375 3.535156 2.34375 5.65625v41.375c0 4.417969 3.582031 8 8 8s8-3.582031 8-8v-9.375c0-3.234375 1.949219-6.152344 4.9375-7.390625s6.429688-.554687 8.71875 1.734375l8.742188 8.734375c3.125 3.125 8.191406 3.125 11.3125 0 3.125-3.125 3.125-8.1875 0-11.3125l-8.734376-8.734375c-2.285156-2.289062-2.972656-5.726562-1.734374-8.714844 1.234374-2.988281 4.148437-4.9375 7.382812-4.941406h9.375c4.417969 0 8-3.582031 8-8s-3.582031-8-8-8h-41.375c-2.121094 0-4.15625-.84375-5.65625-2.34375l-8-8c-2.289062-2.289062-2.972656-5.730469-1.734375-8.71875s4.15625-4.9375 7.390625-4.9375h9.375c4.417969 0 8-3.582031 8-8s-3.582031-8-8-8h-38.566406c-3.445313 0-6.503906-2.203125-7.59375-5.472656l-12.238282-36.703125c-1.265624-3.773438.441407-7.902344 4-9.6875l40.285157-20.136719h2.800781l40 40c3.125 3.125 8.1875 3.125 11.3125 0s3.125-8.1875 0-11.3125l-15.03125-15.03125c-2.289062-2.289062-2.972656-5.730469-1.734375-8.71875s4.15625-4.9375 7.390625-4.9375h9.6875c2.425781 0 4.722656 1.105469 6.238281 3l22.203125 27.753906c2.757813 3.449219 7.796875 4.007813 11.246094 1.246094 3.453125-2.761719 4.011719-7.796875 1.246094-11.246094l-6.207032-7.753906c-1.921874-2.402344-2.296874-5.691406-.964843-8.464844 1.332031-2.773437 4.136719-4.535156 7.214843-4.535156h14.710938c4.417969 0 8-3.582031 8-8s-3.582031-8-8-8zm-164.855469-49.023438-3.273437 9.824219c-.730469 2.207031-2.390625 3.988281-4.539063 4.875-2.152343.890625-4.582031.796875-6.660156-.25l-4.359375-2.179687c-1.550781-.773438-2.808594-2.03125-3.585938-3.582032l-2.175781-4.359374c-1.046875-2.078126-1.140625-4.507813-.253906-6.660157.890625-2.152343 2.671875-3.808593 4.878906-4.539062l9.808594-3.273438c2.886719-.984375 6.078125-.246093 8.238281 1.910157 2.15625 2.152343 2.902344 5.347656 1.921875 8.234374zm-80.617187 109.648438-3.078125 1.03125c-3.773438 1.257812-7.898438-.445312-9.679688-4l-1.457031-2.902344c-1.539062-3.082031-.9375-6.800781 1.496094-9.234375l4.535156-4.535156c2.285156-2.285156 5.722656-2.972656 8.710938-1.738281 2.988281 1.234375 4.9375 4.144531 4.945312 7.378906v6.398438c.003906 3.449218-2.199219 6.511718-5.472656 7.601562zm26.945312-105.25 3.078125-1.03125c3.773438-1.257812 7.898438.445312 9.679688 4l1.457031 2.902344c1.539062 3.082031.9375 6.800781-1.496094 9.234375l-4.535156 4.535156c-2.285156 2.285156-5.722656 2.972656-8.710938 1.738281-2.988281-1.234375-4.9375-4.144531-4.945312-7.378906v-6.398438c-.003906-3.449218 2.199219-6.511718 5.472656-7.601562zm-35.128906 19.65625-4.535156-4.535156c-2.433594-2.433594-3.035156-6.152344-1.496094-9.230469l1.457031-2.90625c1.78125-3.554687 5.90625-5.257813 9.679688-4l3.078125 1.03125c3.261718 1.085937 5.464844 4.132813 5.472656 7.570313v6.398437c.003906 3.238281-1.941406 6.160156-4.929688 7.402344-2.992187 1.242187-6.4375.558593-8.726562-1.730469zm-15.847656 6.777344 4.535156 4.535156c2.289062 2.289062 2.972656 5.730469 1.734375 8.71875s-4.15625 4.9375-7.390625 4.9375h-6.398438c-3.441406-.003906-6.496093-2.207031-7.585937-5.472656l-1.03125-3.078125c-1.257813-3.773438.445313-7.898438 4-9.679688l2.90625-1.457031c3.078125-1.539062 6.796875-.9375 9.230469 1.496094zm-7.535156 34.191406h6.398437c3.234375 0 6.152344 1.949219 7.390625 4.9375s.554688 6.429688-1.734375 8.71875l-4.535156 4.535156c-2.433594 2.433594-6.152344 3.035156-9.234375 1.496094l-2.902344-1.457031c-3.554688-1.78125-5.257812-5.90625-4-9.679688l1.03125-3.078125c1.089844-3.265625 4.144531-5.46875 7.585938-5.472656zm66.695312 24.96875 4.535156 4.535156c2.433594 2.433594 3.035156 6.152344 1.496094 9.230469l-1.457031 2.90625c-1.78125 3.554687-5.90625 5.257813-9.679688 4l-3.078125-1.03125c-3.261718-1.085937-5.464844-4.132813-5.472656-7.570313v-6.398437c-.003906-3.238281 1.941406-6.160156 4.929688-7.402344 2.992187-1.242187 6.4375-.558593 8.726562 1.730469zm15.847656-6.777344-4.535156-4.535156c-2.289062-2.289062-2.972656-5.730469-1.734375-8.71875s4.15625-4.9375 7.390625-4.9375h6.398438c3.441406.003906 6.496093 2.207031 7.585937 5.472656l1.03125 3.078125c1.257813 3.773438-.445313 7.898438-4 9.679688l-2.90625 1.457031c-3.078125 1.539062-6.796875.9375-9.230469-1.496094zm7.535156-34.191406h-6.398437c-3.234375 0-6.152344-1.949219-7.390625-4.9375s-.554688-6.429688 1.734375-8.71875l4.535156-4.535156c2.433594-2.433594 6.152344-3.035156 9.234375-1.496094l2.902344 1.457031c3.554688 1.78125 5.257812 5.90625 4 9.679688l-1.03125 3.078125c-1.089844 3.265625-4.144531 5.46875-7.585938 5.472656zm-37.886718-79.800781 4.625 9.25c1.035156 2.070312 1.117187 4.492187.230468 6.632812-.886718 2.140625-2.65625 3.792969-4.855468 4.527344l-4.625 1.542969c-1.640625.550781-3.414063.550781-5.054688 0l-4.625-1.542969c-2.199218-.734375-3.96875-2.386719-4.855468-4.527344-.886719-2.140625-.804688-4.5625.230468-6.632812l4.625-9.25c1.355469-2.707031 4.125-4.414063 7.152344-4.414063s5.796875 1.707032 7.152344 4.414063zm-64.175782 20.65625 9.808594 3.273437c2.207032.730469 3.988282 2.390625 4.875 4.539063.890625 2.152343.796875 4.582031-.253906 6.660156l-2.175781 4.359375c-.773438 1.550781-2.03125 2.808594-3.582031 3.585938l-4.359376 2.175781c-2.078124 1.046875-4.507812 1.140625-6.660156.253906-2.152344-.890625-3.808594-2.671875-4.539062-4.878906l-3.273438-9.808594c-.988281-2.886719-.246094-6.089844 1.910156-8.246094 2.160157-2.160156 5.359376-2.902343 8.25-1.914062zm-30.777343 60 9.25-4.625c2.074219-1.046875 4.507812-1.140625 6.65625-.253907 2.152343.890626 3.808593 2.671876 4.542969 4.878907l1.542968 4.625c.546875 1.640625.546875 3.414062 0 5.054687l-1.542968 4.625c-.734376 2.207032-2.390626 3.988282-4.542969 4.878906-2.148438.886719-4.582031.792969-6.65625-.253906l-9.25-4.625c-2.710938-1.355468-4.421875-4.125-4.421875-7.15625s1.710937-5.800781 4.421875-7.15625zm20.65625 64.175781 3.273437-9.808594c.730469-2.207031 2.390625-3.988281 4.539063-4.875 2.152343-.890625 4.582031-.796875 6.660156.253906l4.359375 2.175782c1.550781.773437 2.808594 2.03125 3.585938 3.582031l2.175781 4.359375c1.046875 2.078125 1.140625 4.507812.253906 6.660156-.890625 2.152344-2.671875 3.808594-4.878906 4.542969l-9.808594 3.269531c-2.890625.992188-6.09375.25-8.253906-1.914062-2.160157-2.160156-2.898438-5.363282-1.90625-8.253906zm60 30.777344-4.625-9.25c-1.046875-2.074219-1.140625-4.507813-.253907-6.65625.890626-2.152344 2.671876-3.808594 4.878907-4.542969l4.625-1.542969c1.640625-.550781 3.414062-.550781 5.054687 0l4.625 1.542969c2.207032.734375 3.988282 2.390625 4.878906 4.542969.886719 2.148437.792969 4.582031-.253906 6.65625l-4.625 9.25c-1.355468 2.710937-4.128906 4.421875-7.160156 4.417968-3.027344 0-5.796875-1.714843-7.152344-4.425781zm64.175781-20.65625-9.832031-3.28125c-2.207031-.730469-3.988281-2.390625-4.875-4.539063-.890625-2.152343-.796875-4.582031.25-6.660156l2.179687-4.359375c.773438-1.550781 2.03125-2.808594 3.582032-3.585938l4.359374-2.175781c2.078126-1.046875 4.507813-1.140625 6.660157-.253906 2.152343.890625 3.808593 2.671875 4.539062 4.878906l3.273438 9.808594c.984375 2.886719.246093 6.078125-1.910157 8.238281-2.152343 2.15625-5.347656 2.902344-8.234374 1.921875zm10.402344-60-1.546875-4.625c-.546875-1.640625-.546875-3.414063 0-5.054688l1.546875-4.625c.730468-2.207031 2.386718-3.988281 4.539062-4.878906 2.152344-.886719 4.582032-.792969 6.660156.253906l9.246094 4.625c2.707032 1.355469 4.417969 4.125 4.417969 7.152344s-1.710937 5.796875-4.417969 7.152344l-9.246094 4.625c-2.082031 1.066406-4.527343 1.167968-6.691406.277344-2.160156-.890626-3.828125-2.679688-4.558594-4.902344zm0 0" fill="#71a6a0"/><path d="m368 464c4.417969 0 8 3.582031 8 8s-3.582031 8-8 8-8-3.582031-8-8 3.582031-8 8-8zm0 0" fill="#d6ebe9"/></svg>