<svg height="512pt" viewBox="-4 0 512 512.02194" width="512pt" xmlns="http://www.w3.org/2000/svg"><path d="m451.527344 173.320312-.261719.261719-98.410156 98.40625c-5.671875-28.574219-21.792969-54.003906-45.210938-71.332031l82.875-105.175781.261719-.261719c5.65625 5.734375 13.378906 8.953125 21.433594 8.9375 16.773437 0 30.371094 13.601562 30.371094 30.375v17.355469c-.015626 8.054687 3.207031 15.777343 8.941406 21.433593zm0 0" fill="#c2615f"/><path d="m503.332031 212.632812v13.015626c.003907 10.761718-5.714843 20.710937-15.011719 26.121093l-132.511718 78.015625-3.386719-.78125c0-.085937.089844-.261718.089844-.347656 2.214843-9.589844 3.320312-19.402344 3.296875-29.246094.042968-9.21875-.949219-18.417968-2.953125-27.421875l98.410156-98.40625.261719-.261719c5.65625 5.734376 13.378906 8.953126 21.433594 8.9375 16.773437 0 30.371093 13.601563 30.371093 30.375zm0 0" fill="#59474e"/><path d="m390.78125 95.21875-.261719.261719-82.875 105.175781c-11.5-8.382812-24.71875-14.105469-38.703125-16.75.074219-.542969.101563-1.097656.085938-1.648438v-27.246093l2.515625-.523438c28.640625-6.332031 49.554687-26.378906 49.554687-50.070312 0-18.746094-13.019531-35.144531-32.632812-44.257813l15.273437-25.425781.347657-1.300781c2.871093.859375 5.855468 1.300781 8.851562 1.300781h38.53125c16.773438 0 30.371094 13.597656 30.371094 30.371094v8.679687c-.015625 8.054688 3.207031 15.777344 8.941406 21.433594zm0 0" fill="#59474e"/><path d="m304.085938 33.433594-.347657 1.300781-15.273437 25.425781c-23.347656-10.761718-50.238282-10.761718-73.585938 0l-15.273437-25.425781h-8.417969c5.730469-.144531 11.300781-1.917969 16.054688-5.121094l30.023437-25.253906c8.722656-5.8125 20.089844-5.8125 28.8125 0l30.023437 25.253906c2.464844 1.652344 5.152344 2.9375 7.984376 3.820313zm0 0" fill="#c2615f"/><path d="m355.808594 299.410156c.023437 9.84375-1.082032 19.65625-3.296875 29.246094 0 .085938-.089844.261719-.089844.347656-6.355469 29.355469-23.792969 55.125-48.683594 71.941406-14.558593 9.476563-31.410156 14.84375-48.769531 15.53125-1.128906 0-2.167969.085938-3.296875.085938s-2.167969-.085938-3.296875-.085938c-17.359375-.6875-34.210938-6.054687-48.769531-15.53125-25-16.878906-42.480469-42.789062-48.769531-72.289062-2.21875-9.589844-3.324219-19.402344-3.300782-29.246094-.042968-9.21875.949219-18.417968 2.953125-27.421875 5.671875-28.574219 21.792969-54.003906 45.210938-71.332031 11.5-8.382812 24.71875-14.105469 38.703125-16.75h34.539062c13.984375 2.644531 27.203125 8.367188 38.703125 16.75 23.417969 17.328125 39.539063 42.757812 45.210938 71.332031 2.003906 9.003907 2.996093 18.203125 2.953125 27.421875zm0 0" fill="#7f5b53"/><path d="m312.417969 324.515625c0-50.835937-27.195313-92.046875-60.746094-92.046875s-60.746094 41.210938-60.746094 92.046875 27.195313 92.046875 60.746094 92.046875 60.746094-41.210938 60.746094-92.046875zm0 0" fill="#cb9080"/><path d="m269.027344 155.011719v27.246093c.015625.550782-.011719 1.105469-.085938 1.648438-.890625 8.871094-8.355468 15.625-17.269531 15.625s-16.378906-6.753906-17.269531-15.625c-.074219-.542969-.101563-1.097656-.085938-1.648438v-27.246093zm0 0" fill="#cc4b4c"/><path d="m321.097656 104.417969c0 23.691406-20.914062 43.738281-49.554687 50.070312l-2.515625.523438h-.085938c-2.800781.621093-5.644531 1.027343-8.503906 1.214843h-17.53125c-2.859375-.1875-5.703125-.59375-8.503906-1.214843h-.085938l-2.515625-.523438c-28.636719-6.332031-49.550781-26.378906-49.550781-50.070312 0-18.746094 13.015625-35.144531 32.628906-44.257813 23.347656-10.761718 50.238282-10.761718 73.585938 0 19.613281 9.113282 32.632812 25.511719 32.632812 44.257813zm0 0" fill="#cb9080"/><g fill="#f3d55b"><path d="m182.25 503.34375c-3.828125.003906-7.207031-2.496094-8.316406-6.15625-1.109375-3.664062.304687-7.617188 3.488281-9.742188l22.183594-14.777343v-82.136719c0-4.792969 3.882812-8.679688 8.675781-8.679688s8.679688 3.886719 8.679688 8.679688v86.777344c0 2.902344-1.449219 5.613281-3.863282 7.222656l-26.03125 17.355469c-1.425781.953125-3.101562 1.460937-4.816406 1.457031zm0 0"/><path d="m208.28125 512.023438c-4.792969 0-8.675781-3.886719-8.675781-8.679688v-26.035156c0-3.199219 1.761719-6.140625 4.582031-7.652344 2.824219-1.507812 6.246094-1.34375 8.910156.433594l26.035156 17.355468c3.890626 2.695313 4.90625 8.011719 2.28125 11.949219s-7.921874 5.046875-11.90625 2.492188l-12.546874-8.359375v9.816406c0 4.792969-3.886719 8.679688-8.679688 8.679688zm0 0"/><path d="m269.027344 503.34375c-3.824219.003906-7.203125-2.496094-8.3125-6.15625-1.113282-3.664062.304687-7.617188 3.488281-9.742188l22.179687-14.777343v-82.136719c0-4.792969 3.886719-8.679688 8.679688-8.679688s8.675781 3.886719 8.675781 8.679688v86.777344c0 2.902344-1.445312 5.613281-3.859375 7.222656l-26.035156 17.355469c-1.425781.953125-3.101562 1.460937-4.816406 1.457031zm0 0"/><path d="m295.0625 512.023438c-4.792969 0-8.679688-3.886719-8.679688-8.679688v-26.035156c0-3.199219 1.761719-6.140625 4.585938-7.652344 2.820312-1.507812 6.246094-1.34375 8.910156.433594l26.03125 17.355468c3.894532 2.695313 4.910156 8.011719 2.285156 11.949219s-7.921874 5.046875-11.90625 2.492188l-12.550781-8.359375v9.816406c0 4.792969-3.882812 8.679688-8.675781 8.679688zm0 0"/></g><path d="m150.835938 328.65625-3.300782 1.128906-132.511718-78.015625c-9.296876-5.410156-15.0156255-15.359375-15.0117192-26.121093v-13.015626c.078125-16.742187 13.6328122-30.292968 30.3710932-30.375 8.054688.015626 15.777344-3.203124 21.4375-8.9375l.257813.261719 98.410156 98.40625c-2.003906 9.003907-2.996093 18.203125-2.953125 27.421875-.023437 9.84375 1.082032 19.65625 3.300782 29.246094zm0 0" fill="#59474e"/><path d="m195.699219 200.65625c-23.417969 17.328125-39.539063 42.757812-45.210938 71.332031l-98.410156-98.40625-.257813-.261719c5.730469-5.65625 8.953126-13.378906 8.9375-21.433593v-17.355469c.078126-16.742188 13.632813-30.292969 30.371094-30.375 8.054688.015625 15.777344-3.203125 21.433594-8.9375l.261719.261719zm0 0" fill="#c2615f"/><path d="m234.402344 183.90625c-13.984375 2.644531-27.203125 8.367188-38.703125 16.75l-82.875-105.175781-.261719-.261719c5.734375-5.65625 8.957031-13.378906 8.941406-21.433594v-8.679687c0-16.773438 13.597656-30.371094 30.371094-30.371094h47.730469l15.273437 25.425781c-19.613281 9.113282-32.628906 25.511719-32.628906 44.257813 0 23.691406 20.914062 43.738281 49.550781 50.070312l2.515625.523438v27.246093c-.015625.550782.011719 1.105469.085938 1.648438zm0 0" fill="#59474e"/><path d="m239.679688 112.835938h23.984374c3.007813 0 5.796876 1.558593 7.378907 4.117187s1.722656 5.75.378906 8.4375l-11.992187 23.988281c-1.46875 2.941406-4.472657 4.796875-7.761719 4.796875-3.289063 0-6.292969-1.855469-7.761719-4.796875l-11.992188-23.988281c-1.347656-2.6875-1.203124-5.882813.378907-8.441406 1.585937-2.558594 4.378906-4.113281 7.386719-4.113281zm0 0" fill="#f3d55b"/><path d="m234.316406 95.480469c-1.132812-.015625-2.253906-.25-3.296875-.695313-1.050781-.441406-2.019531-1.058594-2.863281-1.820312l-1.042969-1.304688c-.328125-.484375-.589843-1.007812-.78125-1.5625-.25-.488281-.425781-1.015625-.519531-1.558594-.101562-.574218-.160156-1.15625-.175781-1.738281.015625-1.132812.25-2.253906.695312-3.296875.417969-1.0625 1.039063-2.035156 1.824219-2.863281.84375-.765625 1.8125-1.382813 2.863281-1.824219 3.230469-1.359375 6.960938-.636718 9.457031 1.824219.785157.828125 1.402344 1.800781 1.824219 2.863281.445313 1.042969.679688 2.164063.691407 3.296875-.015626.582031-.070313 1.164063-.171876 1.738281-.097656.542969-.273437 1.066407-.519531 1.558594-.191406.554688-.453125 1.078125-.78125 1.5625-.320312.457032-.667969.890625-1.042969 1.304688-.84375.761718-1.8125 1.378906-2.863281 1.820312-1.042969.445313-2.164062.679688-3.296875.695313zm0 0" fill="#35495e"/><path d="m269.027344 95.480469c-1.132813-.015625-2.253906-.25-3.296875-.695313-1.0625-.417968-2.035157-1.039062-2.863281-1.820312l-1.042969-1.304688c-.328125-.484375-.589844-1.007812-.78125-1.5625-.25-.488281-.425781-1.015625-.519531-1.558594-.230469-1.148437-.230469-2.328124 0-3.472656.09375-.542968.269531-1.070312.519531-1.5625.191406-.550781.453125-1.078125.78125-1.5625l1.042969-1.300781c.828124-.785156 1.800781-1.402344 2.863281-1.824219 3.230469-1.359375 6.964843-.636718 9.457031 1.824219l1.042969 1.300781c.328125.484375.589843 1.011719.78125 1.5625.25.492188.425781 1.019532.519531 1.5625.234375 1.144532.234375 2.324219 0 3.472656-.09375.542969-.269531 1.066407-.519531 1.558594-.191407.554688-.453125 1.078125-.78125 1.5625l-1.042969 1.304688c-1.664062 1.582031-3.863281 2.480468-6.160156 2.515625zm0 0" fill="#35495e"/></svg>